<!--
    Example card for stressmonster
-->
<svg class="_card_1p6ut_4" width="100%" height="100%" viewBox="0 0 400 400">
    <defs>
        <clipPath id="myClip">
            <rect x="55" y="70" width="290" height="178">
        </rect></clipPath>
    </defs>
    <rect class="_cardBackground_1p6ut_14" x="10" y="10" width="380" height="380" rx="15" ry="15"></rect> <!--Beige bg-->
    <text x="45" y="20" class="_name_1p6ut_18">Stress</text> <!--Name-->
    <text x="305" y="20" class="_health_1p6ut_26">280</text> <!--Base health-->
    <g id="hermit-image">
        <rect x="45" y="60" fill="white" width="310" height="196"></rect>
        <image href="/images/backgrounds/stressmonster101.png" x="55" y="70" width="290" clip-path="url(#myClip)"></image>
        <image href="/images/hermits-nobg/stressmonster101.png" x="55" y="80" width="290" clip-path="url(#myClip)"></image>
    </g>
    <g id="hermit-type">
        <rect class="_hermitTypeBackground_1p6ut_33" x="315" y="-5" width="100" height="100" rx="50" ry="50"></rect>
        <image x="327" y="12" width="68" height="68" href="/images/types/type-builder.png"></image>
    </g>
    <g id="hermit-attacks" class="_hermitAttacks_1p6ut_37">
        <g><image href="/images/types/type-builder.png" x="48" y="273" width="28" height="28"></image></g>
        <text x="200" y="272" class="_attackName_1p6ut_41">'Ello</text>
        <text x="380" y="270" class="_attackDamage_1p6ut_53">50</text>
        <rect x="20" y="315" width="360" height="10" fill="white"></rect>
        <image href="/images/types/type-builder.png" x="34" y="343" width="28" height="28"></image>
        <image href="/images/types/type-builder.png" x="62" y="343" width="28" height="28"></image>
        <text x="200" y="342" class="_attackName_1p6ut_41">Geezer</text><text x="380" y="340" class="_attackDamage_1p6ut_53">80</text>
    </g>
</svg>